HIERARCHY
ROOT root
{
	OFFSET 0.000000 0.000000 0.000000
	CHANNELS 6 Xposition Yposition Zposition Zrotation Yrotation Xrotation
	JOINT lhip
	{
		OFFSET 0.058581 -0.082280 -0.017664
		CHANNELS 3 Zrotation Yrotation Xrotation
		JOINT lknee
		{
			OFFSET 0.043451 -0.386469 0.008037
			CHANNELS 3 Zrotation Yrotation Xrotation
			JOINT lankle
			{
				OFFSET -0.014790 -0.426874 -0.037428
				CHANNELS 3 Zrotation Yrotation Xrotation
				JOINT ltoe
				{
					OFFSET 0.041054 -0.060286 0.122042
					CHANNELS 3 Zrotation Yrotation Xrotation
					End Site
					{
						OFFSET 0.000000 0.000000 0.000000
					}
				}
			}
		}
	}
	JOINT rhip
	{
		OFFSET -0.060310 -0.090513 -0.013543
		CHANNELS 3 Zrotation Yrotation Xrotation
		JOINT rknee
		{
			OFFSET -0.043257 -0.383688 -0.004843
			CHANNELS 3 Zrotation Yrotation Xrotation
			JOINT rankle
			{
				OFFSET 0.019056 -0.420046 -0.034562
				CHANNELS 3 Zrotation Yrotation Xrotation
				JOINT rtoe
				{
					OFFSET -0.034840 -0.062106 0.130323
					CHANNELS 3 Zrotation Yrotation Xrotation
					End Site
					{
						OFFSET 0.000000 0.000000 0.000000
					}
				}
			}
		}
	}
	JOINT lowerback
	{
		OFFSET 0.004439 0.124404 -0.038385
		CHANNELS 3 Zrotation Yrotation Xrotation
		JOINT upperback
		{
			OFFSET 0.004488 0.137956 0.026820
			CHANNELS 3 Zrotation Yrotation Xrotation
			JOINT chest
			{
				OFFSET -0.002265 0.056032 0.002855
				CHANNELS 3 Zrotation Yrotation Xrotation
				JOINT lowerneck
				{
					OFFSET -0.013390 0.211636 -0.033468
					CHANNELS 3 Zrotation Yrotation Xrotation
					JOINT upperneck
					{
						OFFSET 0.010113 0.088937 0.050410
						CHANNELS 3 Zrotation Yrotation Xrotation
						End Site
						{
							OFFSET 0.000000 0.000000 0.000000
						}
					}
				}
				JOINT lclavicle
				{
					OFFSET 0.071702 0.114000 -0.018898
					CHANNELS 3 Zrotation Yrotation Xrotation
					JOINT lshoulder
					{
						OFFSET 0.122921 0.045205 -0.019046
						CHANNELS 3 Zrotation Yrotation Xrotation
						JOINT lelbow
						{
							OFFSET 0.255332 -0.015649 -0.022946
							CHANNELS 3 Zrotation Yrotation Xrotation
							JOINT lwrist
							{
								OFFSET 0.265709 0.012698 -0.007375
								CHANNELS 3 Zrotation Yrotation Xrotation
								End Site
								{
									OFFSET 0.000000 0.000000 0.000000
								}
							}
						}
					}
				}
				JOINT rclavicle
				{
					OFFSET -0.082954 0.112472 -0.023707
					CHANNELS 3 Zrotation Yrotation Xrotation
					JOINT rshoulder
					{
						OFFSET -0.113228 0.046853 -0.008472
						CHANNELS 3 Zrotation Yrotation Xrotation
						JOINT relbow
						{
							OFFSET -0.260127 -0.014369 -0.031269
							CHANNELS 3 Zrotation Yrotation Xrotation
							JOINT rwrist
							{
								OFFSET -0.269108 0.006794 -0.006027
								CHANNELS 3 Zrotation Yrotation Xrotation
								End Site
								{
									OFFSET 0.000000 0.000000 0.000000
								}
							}
						}
					}
				}
			}
		}
	}
}
MOTION
Frames: 7
Frame Time: 0.033333
1.720430 0.516503 1.022625 -15.583480 -3.043252 90.065398 0.340605 -10.914513 -25.314314 1.731550 2.763076 16.784485 3.406835 12.138755 -17.618355 0.000000 -0.000000 0.000000 9.359567 1.700660 11.645847 -7.165068 8.332892 1.688545 0.048719 -7.165302 -25.210723 0.000000 -0.000000 0.000000 -2.601757 9.048020 4.787873 1.502338 -1.514550 0.529294 -0.165240 2.579257 -0.769346 3.806416 -15.264560 -4.117820 0.819997 -26.800638 16.528760 -21.367652 3.338300 2.816645 -63.164167 -3.850454 9.159593 15.311654 -24.015614 1.063074 6.801227 -22.024311 -0.854070 23.629493 7.033117 2.824410 56.157582 3.484850 12.655603 -10.610234 28.430123 7.355553 -2.912101 12.631996 -4.132769 
1.715516 0.493706 1.020562 -18.333886 -2.959888 90.829863 0.577266 -10.316818 -25.023014 3.208035 0.673675 9.234519 2.520054 10.704727 -16.861696 0.000000 -0.000000 0.000000 8.457162 0.636770 12.040389 -7.319380 11.009662 2.515233 0.403943 -5.622171 -25.601672 0.000000 -0.000000 0.000000 -2.432350 9.770220 3.841150 1.231202 -0.857325 0.762646 -0.220315 2.810145 -0.946328 4.233347 -13.615117 -4.097868 0.282225 -26.215596 17.011987 -21.405107 4.290687 2.089046 -62.612858 -3.555413 8.324659 14.855985 -23.951728 1.615803 1.251462 -21.221048 1.836411 23.866130 6.485068 2.743115 56.478251 3.623580 12.239866 -10.427691 27.651926 7.000170 -0.016031 12.957406 -2.992166 
1.710749 0.469407 1.017585 -20.705523 -3.019410 91.455755 0.540359 -9.935022 -24.788990 4.011740 -1.994126 5.239658 1.936982 9.697455 -15.387572 0.000000 -0.000000 0.000000 7.220749 -0.050532 12.372873 -7.148576 12.848866 3.907905 1.025640 -3.844204 -25.702454 0.000000 -0.000000 0.000000 -2.628543 10.251804 3.014579 1.319551 -0.453724 0.594443 -0.234827 2.969439 -0.951363 4.141515 -13.045223 -3.913464 0.249399 -26.327676 16.739030 -21.199477 4.900423 2.143756 -62.931388 -2.942540 8.832405 14.620792 -23.236411 1.833545 8.243547 -23.131219 -1.023250 24.157393 6.138788 2.980597 56.481567 3.507475 12.164133 -9.708540 26.647842 7.677571 -2.921379 12.989586 -2.575922 
1.705781 0.442458 1.014966 -22.318006 -3.069856 91.755330 0.781163 -10.623946 -24.299236 3.483759 -3.374208 5.408397 0.900699 8.599185 -14.829215 0.000000 -0.000000 0.000000 6.620127 0.566304 13.217672 -6.917183 14.189375 5.732879 1.213711 -3.713687 -25.655316 0.000000 -0.000000 0.000000 -2.699978 10.305751 2.233311 1.354814 -0.394462 0.629174 -0.428318 3.043362 -1.074884 4.550311 -12.394789 -4.088241 -0.138753 -26.169255 17.066841 -21.431546 5.478291 2.156538 -62.466917 -2.809091 8.166732 15.226519 -22.862606 1.787589 3.139321 -22.180821 2.050486 24.895372 5.514283 2.892296 56.217076 2.782009 12.073672 -9.164920 26.534375 8.298222 -0.113480 13.691463 -2.214874 
1.700638 0.412369 1.012784 -23.921714 -3.239145 91.762090 0.487958 -11.218548 -22.951626 2.656349 -3.895226 7.125255 0.597615 8.419779 -13.111732 0.000000 -0.000000 0.000000 5.159971 0.948609 14.035038 -5.393882 14.810047 8.403403 1.494470 -3.025176 -24.998218 0.000000 -0.000000 0.000000 -2.864778 10.354190 0.895290 1.713082 -0.404824 1.570556 -0.689943 3.106490 -1.118444 4.857563 -11.729444 -4.618339 -0.945771 -25.213629 17.514534 -21.523681 5.734767 2.031764 -62.330531 -2.399931 8.920755 14.956731 -22.119520 0.939054 7.324830 -23.162524 0.761299 25.234067 4.828290 2.433098 56.633391 1.589758 12.796720 -9.688820 25.850834 7.065776 -0.155003 12.656332 -1.714473 
1.695072 0.382461 1.013389 -25.126141 -3.982905 92.890329 0.178704 -12.834672 -23.025565 2.143744 -3.038324 7.896162 -0.466419 8.383900 -8.950300 0.000000 -0.000000 0.000000 4.549150 2.923489 12.930031 -5.417704 14.319299 12.460438 2.377205 -3.071946 -22.619421 0.000000 -0.000000 0.000000 -4.192467 9.969119 -0.929934 1.973171 -0.422983 1.508185 -0.705026 2.957381 -1.766618 4.910104 -10.621457 -1.999890 0.508956 -23.575163 16.580108 -21.511795 6.433407 2.242867 -62.015489 -2.032105 8.548834 15.448394 -21.494155 -0.297114 3.782368 -22.513204 3.071597 25.181123 3.411910 1.895344 57.341220 0.214863 13.044079 -9.303810 24.785761 6.994069 1.949444 12.698222 -0.696665 
1.687692 0.349972 1.015986 -25.457673 -4.497264 92.577778 -0.816771 -12.999090 -20.824817 1.148657 -2.925015 8.688738 -1.149815 9.094144 -7.647623 0.000000 -0.000000 0.000000 3.240761 3.037692 12.168221 -3.005864 12.960675 18.791011 4.842334 -1.571362 -18.968928 0.000000 -0.000000 0.000000 -4.984984 9.463702 -2.005874 2.406442 -0.667028 1.723232 -0.878171 2.533549 -1.584073 5.455130 -9.992866 -1.504892 0.439846 -23.296248 16.812444 -21.039459 6.968573 2.478613 -62.104780 -2.251357 8.912063 15.236331 -20.261823 0.124183 5.315463 -22.891000 2.388616 25.178359 1.864739 1.292551 57.745174 -0.882469 13.656303 -8.664900 23.443384 8.318971 1.317156 12.875504 -0.926008 
